<svg width="20" height="20" viewBox="0 0 20 20" fill="none" xmlns="http://www.w3.org/2000/svg">
<g clip-path="url(#clip0_420_72786)">
<g clip-path="url(#clip1_420_72786)">
<path d="M14.1667 9.16675H5.83335C4.91288 9.16675 4.16669 9.91294 4.16669 10.8334V15.8334C4.16669 16.7539 4.91288 17.5001 5.83335 17.5001H14.1667C15.0872 17.5001 15.8334 16.7539 15.8334 15.8334V10.8334C15.8334 9.91294 15.0872 9.16675 14.1667 9.16675Z" stroke="#121958" stroke-width="1.25" stroke-linecap="round" stroke-linejoin="round"/>
<path d="M10 14.1667C10.4603 14.1667 10.8334 13.7936 10.8334 13.3333C10.8334 12.8731 10.4603 12.5 10 12.5C9.53978 12.5 9.16669 12.8731 9.16669 13.3333C9.16669 13.7936 9.53978 14.1667 10 14.1667Z" stroke="#121958" stroke-width="1.25" stroke-linecap="round" stroke-linejoin="round"/>
<path d="M6.66669 9.16675V5.00008C6.66669 4.11603 7.01788 3.26818 7.643 2.64306C8.26812 2.01794 9.11597 1.66675 10 1.66675C10.8841 1.66675 11.7319 2.01794 12.357 2.64306C12.9822 3.26818 13.3334 4.11603 13.3334 5.00008" stroke="#121958" stroke-width="1.25" stroke-linecap="round" stroke-linejoin="round"/>
</g>
</g>
<defs>
<clipPath id="clip0_420_72786">
<rect width="20" height="20" fill="white"/>
</clipPath>
<clipPath id="clip1_420_72786">
<rect width="20" height="20" fill="white"/>
</clipPath>
</defs>
</svg>
