<svg width="20" height="20" viewBox="0 0 20 20" fill="none" xmlns="http://www.w3.org/2000/svg">
<path d="M2.5 2.5L17.5 17.5" stroke="#121958" stroke-width="1.25" stroke-linecap="round" stroke-linejoin="round"/>
<path d="M8.81997 8.82251C8.50724 9.13502 8.33146 9.55897 8.3313 10.0011C8.33114 10.4432 8.50662 10.8673 8.81914 11.18C9.13165 11.4927 9.5556 11.6685 9.99771 11.6687C10.4398 11.6688 10.8639 11.4934 11.1766 11.1808" stroke="#121958" stroke-width="1.25" stroke-linecap="round" stroke-linejoin="round"/>
<path d="M14.4642 14.4574C13.105 15.3741 11.6184 15.8332 10 15.8332C6.66669 15.8332 3.88919 13.8891 1.66669 9.99989C2.80752 8.00405 4.09419 6.52072 5.52669 5.54905M7.80252 4.47072C8.51703 4.26632 9.25685 4.16392 10 4.16655C13.3334 4.16655 16.1109 6.11072 18.3334 9.99989C17.685 11.1341 16.99 12.1032 16.2475 12.9066L7.80252 4.47072Z" stroke="#121958" stroke-width="1.25" stroke-linecap="round" stroke-linejoin="round"/>
</svg>
