<svg width="20" height="20" viewBox="0 0 20 20" fill="none" xmlns="http://www.w3.org/2000/svg">
<g clip-path="url(#clip0_7_287025)">
<g clip-path="url(#clip1_7_287025)">
<path d="M7.49998 3.33325H4.16665C3.70641 3.33325 3.33331 3.70635 3.33331 4.16659V7.49992C3.33331 7.96016 3.70641 8.33325 4.16665 8.33325H7.49998C7.96022 8.33325 8.33331 7.96016 8.33331 7.49992V4.16659C8.33331 3.70635 7.96022 3.33325 7.49998 3.33325Z" stroke="#121958" stroke-width="1.25" stroke-linecap="round" stroke-linejoin="round"/>
<path d="M15.8334 3.33325H12.5C12.0398 3.33325 11.6667 3.70635 11.6667 4.16659V7.49992C11.6667 7.96016 12.0398 8.33325 12.5 8.33325H15.8334C16.2936 8.33325 16.6667 7.96016 16.6667 7.49992V4.16659C16.6667 3.70635 16.2936 3.33325 15.8334 3.33325Z" stroke="#121958" stroke-width="1.25" stroke-linecap="round" stroke-linejoin="round"/>
<path d="M7.49998 11.6667H4.16665C3.70641 11.6667 3.33331 12.0398 3.33331 12.5001V15.8334C3.33331 16.2937 3.70641 16.6667 4.16665 16.6667H7.49998C7.96022 16.6667 8.33331 16.2937 8.33331 15.8334V12.5001C8.33331 12.0398 7.96022 11.6667 7.49998 11.6667Z" stroke="#121958" stroke-width="1.25" stroke-linecap="round" stroke-linejoin="round"/>
<path d="M15.8334 11.6667H12.5C12.0398 11.6667 11.6667 12.0398 11.6667 12.5001V15.8334C11.6667 16.2937 12.0398 16.6667 12.5 16.6667H15.8334C16.2936 16.6667 16.6667 16.2937 16.6667 15.8334V12.5001C16.6667 12.0398 16.2936 11.6667 15.8334 11.6667Z" stroke="#121958" stroke-width="1.25" stroke-linecap="round" stroke-linejoin="round"/>
</g>
</g>
<defs>
<clipPath id="clip0_7_287025">
<rect width="20" height="20" fill="white"/>
</clipPath>
<clipPath id="clip1_7_287025">
<rect width="20" height="20" fill="white"/>
</clipPath>
</defs>
</svg>
