<svg width="20" height="20" viewBox="0 0 20 20" fill="none" xmlns="http://www.w3.org/2000/svg">
<g clip-path="url(#clip0_397_82697)">
<g clip-path="url(#clip1_397_82697)">
<path d="M10 17.5C14.1421 17.5 17.5 14.1421 17.5 10C17.5 5.85786 14.1421 2.5 10 2.5C5.85786 2.5 2.5 5.85786 2.5 10C2.5 14.1421 5.85786 17.5 10 17.5Z" stroke="#121958" stroke-width="1.25" stroke-linecap="round" stroke-linejoin="round"/>
<path d="M12.3333 7.50005C12.1824 7.23818 11.963 7.0223 11.6988 6.87551C11.4346 6.72872 11.1354 6.65654 10.8333 6.66672H9.16667C8.72464 6.66672 8.30072 6.84231 7.98816 7.15487C7.6756 7.46743 7.5 7.89135 7.5 8.33338C7.5 8.77541 7.6756 9.19933 7.98816 9.51189C8.30072 9.82445 8.72464 10 9.16667 10H10.8333C11.2754 10 11.6993 10.1756 12.0118 10.4882C12.3244 10.8008 12.5 11.2247 12.5 11.6667C12.5 12.1087 12.3244 12.5327 12.0118 12.8452C11.6993 13.1578 11.2754 13.3334 10.8333 13.3334H9.16667C8.86458 13.3436 8.56541 13.2714 8.30118 13.1246C8.03696 12.9778 7.81763 12.7619 7.66667 12.5" stroke="#121958" stroke-width="1.25" stroke-linecap="round" stroke-linejoin="round"/>
<path d="M10 13.3333V15M10 5V6.66667V5Z" stroke="#121958" stroke-width="1.25" stroke-linecap="round" stroke-linejoin="round"/>
</g>
</g>
<defs>
<clipPath id="clip0_397_82697">
<rect width="20" height="20" fill="white"/>
</clipPath>
<clipPath id="clip1_397_82697">
<rect width="20" height="20" fill="white"/>
</clipPath>
</defs>
</svg>
