<svg width="20" height="20" viewBox="0 0 20 20" fill="none" xmlns="http://www.w3.org/2000/svg">
<g clip-path="url(#clip0_389_91232)">
<g clip-path="url(#clip1_389_91232)">
<path d="M10 17.5C14.1421 17.5 17.5 14.1421 17.5 10C17.5 5.85786 14.1421 2.5 10 2.5C5.85786 2.5 2.5 5.85786 2.5 10C2.5 14.1421 5.85786 17.5 10 17.5Z" stroke="#121958" stroke-width="1.25" stroke-linecap="round" stroke-linejoin="round"/>
<path d="M10 14.1667V14.1751" stroke="#121958" stroke-width="1.25" stroke-linecap="round" stroke-linejoin="round"/>
<path d="M9.99998 11.25C9.98464 10.9795 10.0576 10.7113 10.2079 10.4858C10.3582 10.2604 10.5777 10.0899 10.8333 9.99998C11.1465 9.88019 11.4277 9.68934 11.6546 9.44244C11.8816 9.19554 12.0481 8.89933 12.1411 8.57713C12.2341 8.25494 12.251 7.91555 12.1906 7.5857C12.1301 7.25584 11.994 6.94452 11.7927 6.67624C11.5915 6.40796 11.3308 6.19005 11.0311 6.03966C10.7313 5.88927 10.4008 5.81051 10.0654 5.80958C9.73007 5.80865 9.39908 5.88557 9.09852 6.0343C8.79795 6.18302 8.53601 6.39948 8.33331 6.66664" stroke="#121958" stroke-width="1.25" stroke-linecap="round" stroke-linejoin="round"/>
</g>
</g>
<defs>
<clipPath id="clip0_389_91232">
<rect width="20" height="20" fill="white"/>
</clipPath>
<clipPath id="clip1_389_91232">
<rect width="20" height="20" fill="white"/>
</clipPath>
</defs>
</svg>
